<?xml version="1.0" standalone="no"?>
<!DOCTYPE svg PUBLIC "-//W3C//DTD SVG 20010904//EN"
 "http://www.w3.org/TR/2001/REC-SVG-20010904/DTD/svg10.dtd">
<svg version="1.0" xmlns="http://www.w3.org/2000/svg"
 width="294.000000pt" height="285.000000pt" viewBox="0 0 294.000000 285.000000"
 preserveAspectRatio="xMidYMid meet">

<g transform="translate(0.000000,285.000000) scale(0.100000,-0.100000)"
fill="#000000" stroke="none">
<path d="M1396 2735 c-40 -14 -90 -55 -108 -90 -6 -11 -16 -42 -22 -69 l-11
-49 -60 -14 c-229 -51 -437 -166 -605 -333 -103 -104 -175 -207 -240 -343 -99
-207 -120 -335 -120 -732 l0 -291 -27 -16 c-16 -9 -41 -31 -58 -48 -30 -31
-30 -32 -33 -162 -3 -86 0 -140 8 -159 97 -232 1101 -376 1910 -273 433 55
722 157 770 273 8 19 11 73 8 159 -3 130 -3 131 -33 162 -16 17 -42 39 -57 48
l-28 16 0 291 c0 392 -21 524 -116 724 -163 345 -452 583 -818 676 l-91 23
-11 49 c-6 26 -16 58 -22 69 -19 35 -79 82 -119 93 -49 14 -69 13 -117 -4z
m104 -145 c37 -37 26 -50 -40 -50 -47 0 -60 3 -60 15 0 22 37 55 60 55 11 0
29 -9 40 -20z m140 -201 c327 -50 629 -269 785 -571 51 -97 67 -138 97 -248
19 -67 21 -110 25 -407 3 -208 1 -333 -5 -333 -5 0 -30 9 -54 20 -92 40 -467
120 -567 120 -30 0 -61 -35 -61 -68 0 -50 27 -62 189 -88 174 -27 286 -54 393
-95 93 -36 108 -50 75 -72 -82 -54 -380 -124 -647 -153 -211 -23 -611 -23
-820 0 -268 29 -565 99 -647 153 -33 22 -18 36 78 73 103 39 209 65 392 94
160 26 187 38 187 88 0 34 -31 68 -63 68 -99 -1 -475 -80 -564 -120 -25 -11
-49 -20 -54 -20 -16 0 -11 577 6 671 35 204 134 402 277 554 254 272 603 391
978 334z m-1298 -1863 c108 -63 325 -119 611 -158 221 -31 764 -33 982 -5 372
49 609 119 708 211 l27 25 0 -64 c0 -62 -1 -64 -35 -85 -95 -59 -392 -132
-675 -167 -207 -25 -793 -25 -1000 0 -280 34 -537 97 -657 160 l-48 25 -3 66
-3 66 23 -23 c13 -13 45 -36 70 -51z"/>
<path d="M898 1913 c-14 -16 -78 -93 -142 -172 -85 -105 -116 -151 -116 -171
0 -22 71 -101 390 -433 215 -223 399 -409 410 -412 11 -3 29 -3 40 0 11 3 195
189 410 412 323 336 390 411 390 434 0 20 -29 64 -112 166 -61 76 -125 153
-142 171 l-30 32 -536 0 -536 0 -26 -27z m393 -130 c-11 -16 -35 -45 -53 -66
l-33 -38 -47 60 c-27 32 -48 61 -48 65 0 3 45 6 101 6 l100 0 -20 -27z m519
21 c0 -4 -21 -33 -47 -65 l-48 -60 -33 38 c-18 21 -42 50 -53 66 l-20 27 100
0 c56 0 101 -3 101 -6z m-760 -156 c0 -5 -43 -8 -95 -8 -52 0 -95 3 -95 6 0 4
21 32 47 62 l47 55 48 -54 c26 -30 48 -57 48 -61z m465 55 l47 -58 -51 -3
c-28 -2 -74 -2 -102 0 l-51 3 47 58 c26 31 51 57 55 57 4 0 29 -26 55 -57z
m503 2 c23 -30 42 -56 42 -59 0 -3 -43 -6 -95 -6 -52 0 -95 3 -95 6 0 10 90
114 98 113 4 0 26 -24 50 -54z m-794 -410 c37 -113 69 -213 73 -223 5 -15
-286 280 -381 386 l-38 42 140 0 140 0 66 -205z m318 -30 c-42 -129 -79 -235
-82 -235 -3 0 -40 106 -82 235 l-75 235 157 0 157 0 -75 -235z m457 188 c-103
-114 -369 -386 -372 -382 -2 2 28 100 66 217 l69 212 140 0 141 0 -44 -47z"/>
</g>
</svg>
